<svg id="Layer_1" data-name="Layer 1" xmlns="http://www.w3.org/2000/svg" xmlns:xlink="http://www.w3.org/1999/xlink" viewBox="0 0 51.15 75.15"><defs><style>.cls-1{fill:#015b8d;}.cls-2{fill:url(#linear-gradient);}.cls-3{fill:#fff;}</style><linearGradient id="linear-gradient" x1="11.93" y1="25.99" x2="63.07" y2="25.99" gradientTransform="matrix(1, 0, 0, -1, 0, 74.11)" gradientUnits="userSpaceOnUse"><stop offset="0" stop-color="#2bace2"/><stop offset="1" stop-color="#2d7dc1"/></linearGradient></defs><g id="Layer_5" data-name="Layer 5"><path class="cls-1" d="M48.44,12.45v5.4c0,1.13-.87,2.3-2.32,3.27a28,28,0,0,0-9-1.48,28.34,28.34,0,0,0-8.49,1.3,4.16,4.16,0,0,1-2.05-3.09V12.74c0-1,.75-.58.75-.58l8.34,5.11a3.7,3.7,0,0,0,3.68,0L47.9,12S48.44,11.62,48.44,12.45Z" transform="translate(-11.93 -0.01)"/><path class="cls-1" d="M51.37,8.09a.77.77,0,0,0,0-1.43L38.67.31a2.49,2.49,0,0,0-2.34,0L23.63,6.66a.77.77,0,0,0,0,1.43l12.7,7.79a2.43,2.43,0,0,0,2.34,0Z" transform="translate(-11.93 -0.01)"/><path class="cls-1" d="M50.84,19.64V11s0-.4-.23-.27a6.54,6.54,0,0,0-.84.52.73.73,0,0,0-.15.54v7.82a.23.23,0,0,1-.14.19,1.49,1.49,0,0,0,.75,2.77,1.49,1.49,0,0,0,1.49-1.49A1.47,1.47,0,0,0,51,19.83S50.84,19.75,50.84,19.64Z" transform="translate(-11.93 -0.01)"/></g><path class="cls-2" d="M55.5,65a25.41,25.41,0,1,0-6.33,4.62c0,.13,0,.27,0,.41a5.15,5.15,0,1,0,6.35-5Z" transform="translate(-11.93 -0.01)"/><circle class="cls-3" cx="25.79" cy="46.91" r="13.65"/></svg>