<?xml version="1.0" encoding="UTF-8"?>
<svg version="1.1" xmlns="http://www.w3.org/2000/svg" width="501" height="498">
<path d="M0 0 C1.62248256 -0.00131187 3.24496449 -0.00394527 4.86744308 -0.0077675 C9.27799084 -0.01440958 13.68831602 -0.00256751 18.09883547 0.01256669 C22.87296771 0.02561451 27.64708905 0.02113145 32.42123413 0.01885986 C40.67688939 0.01729262 48.93247309 0.02664416 57.18811035 0.04357338 C69.12412344 0.06803363 81.06010219 0.07577582 92.99613762 0.07953735 C112.36512043 0.08609085 131.73406518 0.10602203 151.10302734 0.13444519 C169.90966604 0.16201434 188.71629437 0.18323392 207.52294922 0.19596863 C208.68367392 0.1967568 209.84439862 0.19754497 211.04029679 0.19835702 C216.86375437 0.20227235 222.68721201 0.20606342 228.51066971 0.20979273 C276.76381261 0.24085431 325.01691421 0.29365999 373.27001953 0.36076355 C373.36165986 49.86544093 373.43210129 99.37010972 373.47428085 148.8748553 C373.47928342 154.7249759 373.48446074 160.57509633 373.48974609 166.42521667 C373.49079534 167.58982546 373.49184458 168.75443425 373.49292561 169.95433421 C373.5103107 188.78889143 373.54183793 207.62339959 373.57863072 226.45792775 C373.61609293 245.79704383 373.63826654 265.1361343 373.64637351 284.47528517 C373.65185033 296.39977874 373.66912185 308.32413365 373.7016854 320.24858452 C373.72289851 328.43578065 373.72920424 336.62290554 373.72402504 344.81012712 C373.72147382 349.52727272 373.72526681 354.24417674 373.74684143 358.96127892 C373.76650421 363.29233757 373.76716371 367.62299535 373.75361511 371.95407362 C373.75194406 373.5089005 373.75684998 375.06375383 373.76955226 376.61852972 C374.04419776 412.35608127 358.02187218 442.33253259 333.45751953 467.29826355 C330.87064858 469.89455844 328.32309719 472.31897786 325.27001953 474.36076355 C324.61001953 474.36076355 323.95001953 474.36076355 323.27001953 474.36076355 C323.27001953 475.02076355 323.27001953 475.68076355 323.27001953 476.36076355 C322.28001953 476.36076355 321.29001953 476.36076355 320.27001953 476.36076355 C320.27001953 477.02076355 320.27001953 477.68076355 320.27001953 478.36076355 C285.37692147 498.45603583 285.37692147 498.45603583 266.09234905 498.49498463 C265.0646593 498.49944247 264.03696954 498.50390031 262.97813767 498.50849324 C261.85578605 498.50830888 260.73343442 498.50812452 259.57707214 498.50793457 C258.37944113 498.51161126 257.18181011 498.51528795 255.94788724 498.51907605 C252.62659571 498.52818552 249.30535352 498.53280879 245.98405421 498.53546536 C242.40029107 498.53937609 238.81654213 498.5489541 235.23278809 498.55767822 C226.57769509 498.5774242 217.92260096 498.58750791 209.26749107 498.59640601 C205.18664583 498.60079325 201.10580188 498.60615905 197.02495766 498.61139488 C183.44953652 498.62840769 169.87411618 498.64289925 156.29868603 498.65014362 C152.77716763 498.65205338 149.25564923 498.65397373 145.73413086 498.65592957 C144.85892398 498.65641331 143.98371709 498.65689705 143.08198879 498.65739544 C128.92168241 498.66568594 114.76146078 498.691006 100.60119136 498.72351024 C86.04639441 498.75664617 71.4916404 498.7745984 56.93680555 498.77778786 C48.77170737 498.77994726 40.60673265 498.78861167 32.44167137 498.81424904 C25.48386891 498.83604576 18.5262199 498.84396278 11.56838717 498.83428226 C8.02405888 498.82976291 4.48004657 498.83148375 0.93576241 498.8510437 C-13.17380416 498.92457383 -26.26312596 498.92293607 -39.72998047 494.36076355 C-41.59250568 493.77821037 -41.59250568 493.77821037 -43.49265766 493.18388844 C-56.88821398 488.90853902 -69.75633963 481.14696768 -80.72998047 472.36076355 C-80.72998047 471.70076355 -80.72998047 471.04076355 -80.72998047 470.36076355 C-81.60783203 469.95470886 -81.60783203 469.95470886 -82.50341797 469.54045105 C-101.99965535 459.21086563 -114.74180159 432.3672223 -120.97998047 412.42326355 C-121.56713829 410.40353811 -122.15104006 408.38285977 -122.72998047 406.36076355 C-123.12185547 405.16451355 -123.51373047 403.96826355 -123.91748047 402.73576355 C-126.07775736 393.76230569 -125.88668585 384.38942915 -125.91943359 375.21012878 C-125.93216232 373.26649857 -125.94489139 371.32286837 -125.95763397 369.37923825 C-125.97028439 367.31396194 -125.98064965 365.24868567 -125.99034119 363.18339348 C-126.01073219 358.86789145 -126.03835296 354.55245343 -126.0670166 350.23699951 C-126.13187752 340.31128084 -126.18772662 330.38551565 -126.24300385 320.45973969 C-126.29387084 311.33174868 -126.3466631 302.20378158 -126.40752935 293.07585102 C-126.43587391 288.78374248 -126.459468 284.49164186 -126.47945404 280.19948661 C-126.4959473 276.91524893 -126.51874803 273.63105378 -126.54052734 270.34684753 C-126.54471176 269.15572357 -126.54889618 267.96459961 -126.5532074 266.73738098 C-126.56155106 265.65668839 -126.56989471 264.57599579 -126.57849121 263.46255493 C-126.58364494 262.52002082 -126.58879868 261.57748671 -126.59410858 260.60639095 C-126.58480294 258.32413641 -126.58480294 258.32413641 -127.72998047 256.36076355 C-127.82625667 254.34179491 -127.85979872 252.31952065 -127.85498047 250.29826355 C-127.85755859 249.21416199 -127.86013672 248.13006042 -127.86279297 247.0131073 C-127.72998047 244.36076355 -127.72998047 244.36076355 -126.72998047 243.36076355 C-126.62594888 241.66703612 -126.59200408 239.96896997 -126.58522034 238.27206421 C-126.57487259 236.61739136 -126.57487259 236.61739136 -126.5643158 234.92929077 C-126.56170242 233.70809036 -126.55908905 232.48688995 -126.55639648 231.22868347 C-126.54613067 229.2665676 -126.53586277 227.30445175 -126.52551734 225.3423363 C-126.51526559 223.22514713 -126.50742404 221.1079604 -126.50018501 218.9907589 C-126.48474181 214.57249394 -126.46078704 210.15430086 -126.43528748 205.73608398 C-126.36407883 193.16904761 -126.30454266 180.60196831 -126.25317383 168.03483582 C-126.22475159 161.10002222 -126.18929675 154.1652784 -126.14652008 147.23053819 C-126.11991427 142.84920688 -126.10190598 138.46795455 -126.09048283 134.0865587 C-126.07910669 130.69637971 -126.05501158 127.30630933 -126.03295898 123.91618347 C-126.03236984 122.7172496 -126.0317807 121.51831573 -126.03117371 120.28305054 C-125.82664442 96.41437668 -118.1185279 73.98600143 -104.72998047 54.36076355 C-104.21048828 53.43908386 -103.69099609 52.51740417 -103.15576172 51.5677948 C-102.68525391 50.83947449 -102.21474609 50.11115417 -101.72998047 49.36076355 C-101.06998047 49.36076355 -100.40998047 49.36076355 -99.72998047 49.36076355 C-99.72998047 48.37076355 -99.72998047 47.38076355 -99.72998047 46.36076355 C-98.12930461 44.63062126 -96.44718605 42.9753101 -94.72998047 41.36076355 C-93.76596922 40.36099914 -92.80779329 39.35558118 -91.85498047 38.34513855 C-74.13815623 19.89495048 -74.13815623 19.89495048 -64.72998047 18.36076355 C-64.72998047 17.70076355 -64.72998047 17.04076355 -64.72998047 16.36076355 C-57.29893781 12.32267285 -49.86641194 8.83027242 -41.85498047 6.11076355 C-41.18611816 5.8772821 -40.51725586 5.64380066 -39.828125 5.40324402 C-26.69022805 1.10987382 -13.69830423 -0.08381463 0 0 Z " fill="#686E6E" transform="translate(127.72998046875,-0.3607635498046875)"/>
<path d="M0 0 C80.52 0 161.04 0 244 0 C244 80.19 244 160.38 244 243 C220.9 243.0825 197.8 243.165 174 243.25 C163.09839844 243.30462402 163.09839844 243.30462402 151.9765625 243.36035156 C143.03515625 243.37841797 143.03515625 243.37841797 138.83642578 243.3817749 C135.93200207 243.38547021 133.02787703 243.40033277 130.12353516 243.42230225 C99.10513317 243.64656097 99.10513317 243.64656097 86 239 C84.7632251 238.61152893 83.5264502 238.22305786 82.25219727 237.82281494 C68.85123532 233.565808 55.97243653 225.78523988 45 217 C45 216.34 45 215.68 45 215 C44.41476563 214.72929687 43.82953125 214.45859375 43.2265625 214.1796875 C23.73032511 203.85010208 10.98817888 177.00645875 4.75 157.0625 C4.16284218 155.04277456 3.57894041 153.02209622 3 151 C2.608125 149.80375 2.21625 148.6075 1.8125 147.375 C-0.37453378 138.29039815 -0.14123172 128.83191546 -0.11352539 119.54223633 C-0.11364593 118.22258975 -0.11376646 116.90294317 -0.11389065 115.5433073 C-0.11411433 112.00726868 -0.10836266 108.47126461 -0.10128021 104.93523407 C-0.09554097 101.60440674 -0.0953147 98.2735807 -0.09460449 94.94274902 C-0.08937893 85.23266152 -0.07541766 75.52258031 -0.0625 65.8125 C-0.041875 44.094375 -0.02125 22.37625 0 0 Z " fill="#5DCC57" transform="translate(2,255)"/>
<path d="M0 0 C3.28779406 0.0115785 6.57558375 0.01193629 9.86339569 0.01335144 C19.41399181 0.02375437 28.96456238 0.05167658 38.51512909 0.07756042 C59.90325409 0.11881042 81.29137909 0.16006042 103.32762909 0.20256042 C103.32762909 80.39256042 103.32762909 160.58256042 103.32762909 243.20256042 C22.80762909 243.20256042 -57.71237091 243.20256042 -140.67237091 243.20256042 C-140.71362091 221.34006042 -140.75487091 199.47756042 -140.79737091 176.95256042 C-140.81557892 170.06606628 -140.83378693 163.17957214 -140.85254669 156.08439636 C-140.8615799 147.63273621 -140.8615799 147.63273621 -140.86325836 143.66795349 C-140.86631644 140.9167393 -140.87256342 138.16571297 -140.88352203 135.41453552 C-140.89736499 131.89190836 -140.90133041 128.36939304 -140.89851546 124.8467412 C-140.89937765 122.9619337 -140.9100393 121.07713822 -140.92122841 119.19236374 C-140.86362163 95.32020613 -133.05330301 72.81663558 -119.67237091 53.20256042 C-119.15287872 52.28088074 -118.63338654 51.35920105 -118.09815216 50.40959167 C-117.62764435 49.68127136 -117.15713654 48.95295105 -116.67237091 48.20256042 C-116.01237091 48.20256042 -115.35237091 48.20256042 -114.67237091 48.20256042 C-114.67237091 47.21256042 -114.67237091 46.22256042 -114.67237091 45.20256042 C-113.07169505 43.47241813 -111.38957649 41.81710697 -109.67237091 40.20256042 C-108.70835966 39.20279601 -107.75018373 38.19737805 -106.79737091 37.18693542 C-89.08054667 18.73674736 -89.08054667 18.73674736 -79.67237091 17.20256042 C-79.67237091 16.54256042 -79.67237091 15.88256042 -79.67237091 15.20256042 C-72.31153877 11.2026227 -64.89019282 7.67302946 -56.98487091 4.89006042 C-56.01928253 4.5272699 -56.01928253 4.5272699 -55.03418732 4.15715027 C-37.7264815 -1.66128957 -18.00007265 -0.07385708 0 0 Z " fill="#53C44D" transform="translate(142.67237091064453,0.7974395751953125)"/>
<path d="M0 0 C80.19 0 160.38 0 243 0 C243.0825 22.77 243.165 45.54 243.25 69 C243.28641602 76.16332031 243.32283203 83.32664062 243.36035156 90.70703125 C243.37841797 99.52148437 243.37841797 99.52148437 243.3817749 103.66088867 C243.3854695 106.52364762 243.4003291 109.3861034 243.42230225 112.2487793 C243.64729914 142.92186558 243.64729914 142.92186558 239 156 C238.583985 157.26965304 238.17089918 158.54026912 237.76055908 159.81176758 C230.58057747 181.55123139 215.35678048 205.05489943 196 218 C195.34 218 194.68 218 194 218 C194 218.66 194 219.32 194 220 C193.01 220 192.02 220 191 220 C191 220.66 191 221.32 191 222 C174.2529513 231.64478714 155.92571102 242.13786535 136.00785828 242.12025452 C134.20906613 242.12232076 134.20906613 242.12232076 132.37393475 242.12442875 C131.06161782 242.12083064 129.7493009 242.11723253 128.3972168 242.11352539 C126.97486022 242.11321891 125.55250349 242.1133528 124.13014698 242.11389065 C120.32647995 242.1141161 116.52284447 242.10832669 112.71918488 242.10128021 C109.14795331 242.0955788 105.57672936 242.09531674 102.00549316 242.09460449 C91.56615794 242.08936038 81.12682857 242.07539919 70.6875 242.0625 C47.360625 242.041875 24.03375 242.02125 0 242 C0 162.14 0 82.28 0 0 Z " fill="#4BBD46" transform="translate(257,256)"/>
<path d="M0 0 C0.33 0 0.66 0 1 0 C1 2.64 1 5.28 1 8 C1.99 8 2.98 8 4 8 C4 10.31 4 12.62 4 15 C4.99 15 5.98 15 7 15 C7.185625 13.7934375 7.185625 13.7934375 7.375 12.5625 C7.58125 11.716875 7.7875 10.87125 8 10 C8.66 9.67 9.32 9.34 10 9 C10 86.22 10 163.44 10 243 C90.85 243 171.7 243 255 243 C255 291.51 255 340.02 255 390 C254.67 390 254.34 390 254 390 C254 345.45 254 300.9 254 255 C173.81 255 93.62 255 11 255 C11 334.86 11 414.72 11 497 C7.37 497 3.74 497 0 497 C0 416.81 0 336.62 0 254 C-80.52 254 -161.04 254 -244 254 C-244.33 254.99 -244.66 255.98 -245 257 C-246.38226016 254.23547967 -246.09525387 251.9538637 -246.0625 248.875 C-246.05347656 247.77929688 -246.04445312 246.68359375 -246.03515625 245.5546875 C-246.02355469 244.71164063 -246.01195312 243.86859375 -246 243 C-243.71498175 241.85749088 -242.48085583 241.88085759 -239.94326591 241.89256954 C-239.0893353 241.89406189 -238.23540468 241.89555424 -237.35559738 241.89709181 C-236.41203168 241.9038956 -235.46846597 241.91069939 -234.49630737 241.91770935 C-233.49821175 241.92093848 -232.50011612 241.92416761 -231.47177517 241.92749459 C-228.10598283 241.93961976 -224.74027009 241.95898213 -221.37451172 241.97827148 C-218.97030818 241.98840897 -216.56610274 241.99810321 -214.16189575 242.00738525 C-208.97482481 242.02841368 -203.78777801 242.05254352 -198.60073471 242.07946587 C-191.10108507 242.11838602 -183.60141888 242.15175689 -176.10173692 242.18376113 C-163.93482969 242.2358336 -151.76794774 242.29241154 -139.60107422 242.35180664 C-127.78012068 242.40950345 -115.9591603 242.46507686 -104.13818359 242.51782227 C-103.40244885 242.52110777 -102.66671411 242.52439327 -101.90868437 242.52777833 C-95.50913265 242.55633771 -89.10958021 242.58473588 -82.71002769 242.61311817 C-55.13998552 242.73560172 -27.57000477 242.86867578 0 243 C0 162.81 0 82.62 0 0 Z " fill="#060D06" transform="translate(246,1)"/>
<path d="M0 0 C80.19 0 160.38 0 243 0 C243 79.86 243 159.72 243 242 C240.03 242 237.06 242 234 242 C234 165.11 234 88.22 234 9 C156.78 9 79.56 9 0 9 C0 6.03 0 3.06 0 0 Z " fill="#FCFCFC" transform="translate(257,2)"/>
<path d="M0 0 C3.64875711 0.01269031 7.29751925 0.01369201 10.94629502 0.01605082 C17.82347435 0.02221277 24.70058842 0.03855024 31.5777393 0.05874979 C39.42082675 0.0812756 47.26391769 0.09214372 55.10702956 0.10214067 C71.21101594 0.1229226 87.31493707 0.15799314 103.41887498 0.20278788 C103.41887498 3.17278788 103.41887498 6.14278788 103.41887498 9.20278788 C102.76493729 9.20333264 102.11099959 9.20387741 101.43724561 9.20443869 C85.4145675 9.21950436 69.3922288 9.26234121 53.36971784 9.33487844 C45.62085445 9.36931168 37.87216493 9.39485515 30.12322068 9.39834452 C23.3574125 9.40141497 16.5919157 9.42231137 9.82622749 9.46331245 C6.25446995 9.48436973 2.68315188 9.49738749 -0.88866782 9.48894167 C-37.66506211 9.41663111 -68.53402733 17.2391655 -96.14362502 42.76919413 C-111.73877671 58.33935358 -122.6800696 77.63948652 -127.15849662 99.18566179 C-127.4474917 100.56498112 -127.75838199 101.93984541 -128.08790565 103.31004763 C-129.69448215 110.38555539 -129.88693 117.21991683 -129.89997268 124.45522928 C-129.9100183 125.74416086 -129.92006392 127.03309244 -129.93041396 128.36108255 C-129.95750279 131.86449854 -129.97279997 135.36787481 -129.98584199 138.87136745 C-130.00156592 142.54425455 -130.02832615 146.21706161 -130.05387282 149.88989115 C-130.10049774 156.83105738 -130.13732019 163.77223894 -130.1705457 170.71348083 C-130.2088828 178.62171354 -130.25826226 186.52986554 -130.30852985 194.43803 C-130.4116072 210.69289215 -130.50055394 226.94779841 -130.58112502 243.20278788 C-133.88112502 243.20278788 -137.18112502 243.20278788 -140.58112502 243.20278788 C-140.62796266 225.93861581 -140.6631713 208.67446374 -140.68474936 191.41024256 C-140.69503724 183.39315265 -140.70904969 175.37610235 -140.73200393 167.35903788 C-140.75201433 160.36678023 -140.76485952 153.37455129 -140.76930201 146.38226581 C-140.77189651 142.6840751 -140.77794209 138.98596647 -140.79258513 135.28780222 C-140.8088455 131.14712327 -140.80909983 127.00658464 -140.8081758 122.86587381 C-140.81536635 121.65601816 -140.82255691 120.44616251 -140.82996535 119.19964457 C-140.77258675 95.32447293 -132.9639026 72.81956818 -119.58112502 53.20278788 C-119.06163283 52.28110819 -118.54214065 51.3594285 -118.00690627 50.40981913 C-117.53639846 49.68149881 -117.06589065 48.9531785 -116.58112502 48.20278788 C-115.92112502 48.20278788 -115.26112502 48.20278788 -114.58112502 48.20278788 C-114.58112502 47.21278788 -114.58112502 46.22278788 -114.58112502 45.20278788 C-112.98044916 43.47264559 -111.2983306 41.81733443 -109.58112502 40.20278788 C-108.61711377 39.20302346 -107.65893784 38.1976055 -106.70612502 37.18716288 C-88.98930078 18.73697481 -88.98930078 18.73697481 -79.58112502 17.20278788 C-79.58112502 16.54278788 -79.58112502 15.88278788 -79.58112502 15.20278788 C-72.22029288 11.20285015 -64.79894693 7.67325691 -56.89362502 4.89028788 C-55.92803664 4.52749735 -55.92803664 4.52749735 -54.94294143 4.15737772 C-37.67655781 -1.64717058 -17.93456715 -0.073144 0 0 Z " fill="#F3F5F2" transform="translate(142.58112502098083,0.7972121238708496)"/>
<path d="M0 0 C2.97 0 5.94 0 9 0 C9.09378617 17.97735899 9.1641461 35.95465376 9.20724869 53.9322052 C9.22780131 62.28105895 9.25578071 70.62975997 9.30175781 78.97851562 C9.34185084 86.26233501 9.36748574 93.54604368 9.37635398 100.82997036 C9.38153108 104.68041647 9.39354302 108.53054607 9.42292023 112.38088989 C9.64680897 142.92324497 9.64680897 142.92324497 5 156 C4.583985 157.26965304 4.17089918 158.54026912 3.76055908 159.81176758 C-3.41942253 181.55123139 -18.64321952 205.05489943 -38 218 C-38.66 218 -39.32 218 -40 218 C-40 218.66 -40 219.32 -40 220 C-40.99 220 -41.98 220 -43 220 C-43 220.66 -43 221.32 -43 222 C-59.7470487 231.64478714 -78.07428898 242.13786535 -97.99214172 242.12025452 C-99.19382492 242.12162918 -100.39550812 242.12300385 -101.63360596 242.12442017 C-102.94343445 242.12082489 -104.25326294 242.11722961 -105.6027832 242.11352539 C-107.00251768 242.11324318 -108.4022523 242.11340192 -109.80198669 242.1139679 C-113.59497108 242.11425453 -117.38792378 242.10837941 -121.18090081 242.10139394 C-125.14738825 242.09513814 -129.11387643 242.09455484 -133.08036804 242.09336853 C-140.58839359 242.09026178 -148.09640457 242.08205723 -155.6044237 242.07201904 C-164.15334718 242.06083753 -172.70227135 242.05534231 -181.25120032 242.05032361 C-198.83414198 242.03987408 -216.41706945 242.02228734 -234 242 C-234 239.03 -234 236.06 -234 233 C-233.34329693 232.99853344 -232.68659386 232.99706688 -232.00999069 232.99555588 C-215.93832075 232.95830167 -199.86689911 232.89904422 -183.79540634 232.81609726 C-176.02294374 232.77649851 -168.25057957 232.74400974 -160.47802734 232.72900391 C-153.69360009 232.71588691 -146.90939118 232.68867111 -140.12508702 232.64538693 C-136.54175007 232.62299462 -132.95868013 232.60707566 -129.37526703 232.60811615 C-92.02778175 232.60699081 -60.46211399 224.56242517 -32.8125 198.25 C-18.38830225 183.24229911 -8.97100807 165.09377946 -4 145 C-3.76667969 144.11570312 -3.53335938 143.23140625 -3.29296875 142.3203125 C-0.86507865 132.50395107 -0.84591936 122.33086425 -0.79467773 112.27661133 C-0.78477814 111.05580872 -0.77487854 109.8350061 -0.76467896 108.57720947 C-0.7387115 105.26598848 -0.71676056 101.95478876 -0.69667697 98.64353013 C-0.67462937 95.16952975 -0.64733361 91.69557047 -0.62062073 88.22160339 C-0.57094517 81.6594136 -0.5259144 75.09720069 -0.48259836 68.53496617 C-0.43300945 61.05719621 -0.37817248 53.57946753 -0.32291877 46.10173762 C-0.20948524 30.73453 -0.10256394 15.36728425 0 0 Z " fill="#F0F2EF" transform="translate(491,256)"/>
<path d="M0 0 C2.64 0 5.28 0 8 0 C8.00054477 0.67069771 8.00108953 1.34139542 8.00165081 2.0324173 C8.01667678 18.41982039 8.05935682 34.80690112 8.13209057 51.1941452 C8.16661193 59.11920695 8.19207909 67.04409707 8.19555664 74.96923828 C8.19861456 81.88403417 8.21934797 88.79852341 8.26052457 95.71320105 C8.28169227 99.36801199 8.2945402 103.02238883 8.28615379 106.67726135 C8.25744917 121.61463612 8.36150034 135.00421142 14 149 C14.43156286 150.76246652 14.83513217 152.53250797 15.1875 154.3125 C22.10894876 180.41624961 44.20541908 204.63396929 67.08642578 217.94775391 C85.09789417 227.85199335 104.09876033 232.28156831 124.59301758 232.31884766 C126.52707207 232.33391609 126.52707207 232.33391609 128.50019836 232.34928894 C131.99104054 232.37627397 135.48184313 232.39164322 138.97276139 232.40471697 C142.63762272 232.42048755 146.30240476 232.44723228 149.96720886 232.4727478 C156.88702576 232.51929162 163.806858 232.5561527 170.72675008 232.58942068 C178.61328703 232.62781591 186.49974385 232.67717966 194.38621294 232.72740483 C210.59075084 232.8303612 226.79533346 232.91973804 243 233 C243 235.97 243 238.94 243 242 C224.76187278 242.09377892 206.52380883 242.1641426 188.28549194 242.20724869 C179.81557109 242.22780282 171.34580075 242.2557852 162.87597656 242.30175781 C155.48668177 242.34184612 148.09749608 242.36748465 140.70809555 242.37635398 C136.80176013 242.38153186 132.8957366 242.39354899 128.98950195 242.42292023 C98.1037519 242.64607123 98.1037519 242.64607123 85 238 C83.7632251 237.61152893 82.5264502 237.22305786 81.25219727 236.82281494 C67.85123532 232.565808 54.97243653 224.78523988 44 216 C44 215.34 44 214.68 44 214 C43.41476563 213.72929687 42.82953125 213.45859375 42.2265625 213.1796875 C22.73032511 202.85010208 9.98817888 176.00645875 3.75 156.0625 C3.15636692 154.04466827 2.57301461 152.02378343 2 150 C1.65695831 149.06953354 1.31391663 148.13906708 0.96047974 147.18040466 C-0.70261506 141.30031636 -0.26023925 135.13394017 -0.22705078 129.07836914 C-0.22648601 127.66848763 -0.22680451 126.25860553 -0.22793579 124.84872437 C-0.22850774 121.03722492 -0.21677903 117.22585229 -0.20278788 113.41438222 C-0.19025419 109.4252228 -0.18910794 105.43606022 -0.18673706 101.44688416 C-0.18053003 93.89994672 -0.16412976 86.35306748 -0.14403808 78.80615562 C-0.12165486 70.21124361 -0.11067956 61.61632877 -0.10064721 53.02139485 C-0.07976282 35.34756362 -0.04460199 17.67378649 0 0 Z " fill="#F3F6F2" transform="translate(3,256)"/>
<path d="M0 0 C0.33 0.66 0.66 1.32 1 2 C2.21682559 1.99907821 3.43365118 1.99815641 4.68735027 1.99720669 C33.56552195 1.97555375 62.44369349 1.95906194 91.32187141 1.94893467 C94.87546963 1.94768395 98.42906783 1.94638963 101.98266602 1.94506836 C102.69013016 1.94480605 103.39759431 1.94454374 104.12649677 1.94427348 C115.58503975 1.93992093 127.04357771 1.93203566 138.50211772 1.9228472 C150.25766055 1.91349913 162.01320075 1.90794194 173.76874715 1.90591151 C180.3724751 1.90460598 186.97619169 1.90153007 193.579916 1.89426994 C199.79238808 1.88749513 206.00484407 1.88538604 212.21731949 1.88689232 C214.50021388 1.88661665 216.78310879 1.88462018 219.06599998 1.88079453 C222.17778353 1.87583452 225.28950599 1.87701031 228.40129089 1.87974548 C229.30888143 1.87683264 230.21647197 1.8739198 231.15156525 1.87091869 C235.23341604 1.88064576 239.01880719 1.96811007 243 3 C242.34 3.33 241.68 3.66 241 4 C241.350625 4.5775 241.70125 5.155 242.0625 5.75 C243 8 243 8 242 12 C162.47 12 82.94 12 1 12 C0.67 12.99 0.34 13.98 0 15 C-1.37252731 12.25494537 -1.13229255 9.99672588 -1.125 6.9375 C-1.12757812 5.85339844 -1.13015625 4.76929688 -1.1328125 3.65234375 C-1 1 -1 1 0 0 Z " fill="#010401" transform="translate(1,243)"/>
<path d="M0 0 C3.64875711 0.01269031 7.29751925 0.01369201 10.94629502 0.01605082 C17.82347435 0.02221277 24.70058842 0.03855024 31.5777393 0.05874979 C39.42082675 0.0812756 47.26391769 0.09214372 55.10702956 0.10214067 C71.21101594 0.1229226 87.31493707 0.15799314 103.41887498 0.20278788 C103.41887498 3.17278788 103.41887498 6.14278788 103.41887498 9.20278788 C102.76493729 9.20333264 102.11099959 9.20387741 101.43724561 9.20443869 C85.4145675 9.21950436 69.3922288 9.26234121 53.36971784 9.33487844 C45.62085445 9.36931168 37.87216493 9.39485515 30.12322068 9.39834452 C23.3574125 9.40141497 16.5919157 9.42231137 9.82622749 9.46331245 C6.25446995 9.48436973 2.68315188 9.49738749 -0.88866782 9.48894167 C-24.91060132 9.44174255 -47.22475242 11.79487343 -68.85846877 22.88247538 C-71.58112502 24.20278788 -71.58112502 24.20278788 -73.58112502 24.20278788 C-73.70487502 23.23341288 -73.82862502 22.26403788 -73.95612502 21.26528788 C-74.26550002 19.74935038 -74.26550002 19.74935038 -74.58112502 18.20278788 C-75.24112502 17.87278788 -75.90112502 17.54278788 -76.58112502 17.20278788 C-75.20612502 15.70278788 -75.20612502 15.70278788 -73.58112502 14.20278788 C-72.92112502 14.20278788 -72.26112502 14.20278788 -71.58112502 14.20278788 C-71.58112502 13.21278788 -71.58112502 12.22278788 -71.58112502 11.20278788 C-47.83997523 0.63216067 -25.80693723 -0.10525052 0 0 Z " fill="#F4F7F3" transform="translate(142.58112502098083,0.7972121238708496)"/>
<path d="M0 0 C2.97 0 5.94 0 9 0 C9.07026749 18.02918998 9.12307472 36.05834412 9.15543652 54.08764172 C9.17086605 62.46008587 9.19188016 70.83244465 9.22631836 79.20483398 C9.25634117 86.50730189 9.2756034 93.80970792 9.28226548 101.11223584 C9.28615606 104.97426191 9.29521649 108.83611104 9.31719017 112.69808006 C9.33775961 116.34325105 9.34379316 119.98817453 9.33932304 123.63339806 C9.34052435 125.58828284 9.35655829 127.54314152 9.3732605 129.49795532 C9.34497609 137.69970971 8.1767199 145.09401844 6 153 C5.34 153 4.68 153 4 153 C4 153.66 4 154.32 4 155 C0.71303767 155.79953138 -0.71023192 156.09658936 -4 155 C-4.21727547 149.2180583 -3.945203 144.06948075 -2.53288937 138.4583559 C-0.6793311 129.90741422 -0.83905077 120.98315975 -0.79467773 112.27661133 C-0.78477814 111.05580872 -0.77487854 109.8350061 -0.76467896 108.57720947 C-0.7387115 105.26598848 -0.71676056 101.95478876 -0.69667697 98.64353013 C-0.67462937 95.16952975 -0.64733361 91.69557047 -0.62062073 88.22160339 C-0.57094517 81.6594136 -0.5259144 75.09720069 -0.48259836 68.53496617 C-0.43300945 61.05719621 -0.37817248 53.57946753 -0.32291877 46.10173762 C-0.20948524 30.73453 -0.10256394 15.36728425 0 0 Z " fill="#F9FBF8" transform="translate(491,256)"/>
<path d="M0 0 C0.66423496 -0.00115384 1.32846992 -0.00230769 2.01283321 -0.0034965 C4.24230306 -0.00614689 6.47170094 -0.00165399 8.70116711 0.00279331 C10.3141547 0.00235729 11.92714222 0.00148181 13.54012936 0.00020415 C17.97545544 -0.00203468 22.41075742 0.00197214 26.84608042 0.00698221 C31.62790497 0.01129527 36.40972813 0.00983967 41.19155407 0.00907993 C49.47738817 0.00855524 57.7632144 0.01169633 66.04904652 0.01731777 C78.02901203 0.02544018 90.00897373 0.02804875 101.98894169 0.02930576 C121.42501667 0.03149511 140.86108745 0.03815204 160.29716015 0.04760838 C179.17899588 0.05678551 198.06083046 0.06385341 216.94266796 0.06811619 C218.70589725 0.06851818 218.70589725 0.06851818 220.50474733 0.0689283 C229.69763833 0.07100769 238.89052936 0.07296463 248.0834204 0.07488286 C293.15361289 0.08431883 338.22379488 0.1044366 383.29398632 0.12304783 C383.29398632 80.64304783 383.29398632 161.16304783 383.29398632 244.12304783 C382.96398632 244.12304783 382.63398632 244.12304783 382.29398632 244.12304783 C382.29398632 164.26304783 382.29398632 84.40304783 382.29398632 2.12304783 C302.10398632 2.12304783 221.91398632 2.12304783 139.29398632 2.12304783 C139.29398632 81.98304783 139.29398632 161.84304783 139.29398632 244.12304783 C138.96398632 244.12304783 138.63398632 244.12304783 138.29398632 244.12304783 C137.96398632 167.23304783 137.63398632 90.34304783 137.29398632 11.12304783 C136.63398632 12.77304783 135.97398632 14.42304783 135.29398632 16.12304783 C134.30398632 16.12304783 133.31398632 16.12304783 132.29398632 16.12304783 C132.29398632 13.81304783 132.29398632 11.50304783 132.29398632 9.12304783 C131.30398632 9.12304783 130.31398632 9.12304783 129.29398632 9.12304783 C129.29398632 6.48304783 129.29398632 3.84304783 129.29398632 1.12304783 C82.76398632 1.45304783 36.23398632 1.78304783 -11.70601368 2.12304783 C-11.70601368 1.79304783 -11.70601368 1.46304783 -11.70601368 1.12304783 C-7.74506989 0.18593671 -4.06578856 -0.00130523 0 0 Z " fill="#525353" transform="translate(117.7060136795044,-0.1230478286743164)"/>
<path d="M0 0 C77.22 0 154.44 0 234 0 C234 41.25 234 82.5 234 125 C233.67 125 233.34 125 233 125 C233 84.08 233 43.16 233 1 C157.1 1 81.2 1 3 1 C3.33 5.95 3.66 10.9 4 16 C4.01468524 20.7055482 3.98508796 25.38423733 3.87890625 30.0859375 C3.84277148 32.07374273 3.80664024 34.06154803 3.77068233 36.04935646 C3.71933953 38.8032706 3.66227594 41.55705372 3.60510254 44.31085205 C3.47980758 50.38155432 3.36469233 56.45245463 3.25390625 62.5234375 C3.24133915 63.20789759 3.22877205 63.89235767 3.21582413 64.59755898 C3.04147404 74.28620352 2.97263154 83.96963912 2.99609375 93.66015625 C3.0335283 109.59860884 2.91518203 125.5347919 2.78125 141.47265625 C2.77137495 142.65414812 2.7614999 143.83563999 2.75132561 145.05293465 C2.66995172 154.7228116 2.58464107 164.39265016 2.5 174.0625 C2.335 193.181875 2.17 212.30125 2 232 C44.57 232 87.14 232 131 232 C131 232.33 131 232.66 131 233 C87.77 233 44.54 233 0 233 C0 156.11 0 79.22 0 0 Z " fill="#68B865" transform="translate(257,256)"/>
<path d="M0 0 C77.22 0 154.44 0 234 0 C234 77.22 234 154.44 234 234 C212.55 234.061875 191.1 234.12375 169 234.1875 C162.25433594 234.21481201 155.50867188 234.24212402 148.55859375 234.27026367 C140.25195312 234.28381348 140.25195312 234.28381348 136.34985352 234.28633118 C133.65371533 234.29090536 130.95801531 234.30023471 128.26196289 234.31672668 C108.71007981 234.43095592 91.6110597 233.27804582 73 227 C76.54950034 225.83693557 79.55823948 226.07634951 83.25 226.4375 C84.32765625 226.53933594 85.4053125 226.64117187 86.515625 226.74609375 C87.33546875 226.82988281 88.1553125 226.91367187 89 227 C89 227.66 89 228.32 89 229 C93.68063257 230.12797337 98.32197802 230.33880013 103.11206055 230.55639648 C104.02865039 230.59857772 104.94524023 230.64075895 105.88960552 230.68421841 C117.99181832 231.18721733 130.09679574 231.1241597 142.20703125 231.09765625 C144.75534538 231.09578589 147.30365987 231.09436492 149.85197449 231.09336853 C155.81179095 231.08997534 161.77159046 231.08214135 167.73139828 231.07201904 C174.53223688 231.06072636 181.33307653 231.05531478 188.13392222 231.05032361 C202.08929188 231.03995375 216.04464489 231.02243758 230 231 C230.84864806 225.45175533 230.84864806 225.45175533 231.09765625 219.85644531 C231.09435303 219.12588928 231.0910498 218.39533325 231.08764648 217.64263916 C231.07934814 216.87884949 231.0710498 216.11505981 231.0625 215.328125 C231.05871338 214.52389099 231.05492676 213.71965698 231.05102539 212.89105225 C231.03889617 210.34397798 231.02025656 207.79702178 231 205.25 C230.97342139 201.88021154 230.95344234 198.51047864 230.9375 195.140625 C230.92505249 193.9827951 230.92505249 193.9827951 230.91235352 192.80157471 C230.89758941 189.59263179 230.97731131 187.06806608 232 184 C231.34 184 230.68 184 230 184 C230 181.69 230 179.38 230 177 C230.66 177 231.32 177 232 177 C231.67 174.69 231.34 172.38 231 170 C230.67 170 230.34 170 230 170 C229.79976967 164.39355078 230.20394194 159.15462731 230.98788452 153.59594727 C232.03027161 145.70667119 232.30545967 137.92482801 232.31884766 129.96484375 C232.32829274 128.52111772 232.33857656 127.07739698 232.3496151 125.63368225 C232.37650278 121.8224084 232.39214909 118.01117213 232.40519714 114.1998291 C232.41929367 110.60257099 232.44388788 107.00541166 232.4675293 103.40820312 C232.53038369 92.93885918 232.57671691 82.46942129 232.625 72 C232.74875 48.57 232.8725 25.14 233 1 C156.11 1 79.22 1 0 1 C0 0.67 0 0.34 0 0 Z " fill="#569951" transform="translate(12,255)"/>
<path d="M0 0 C0.33 0 0.66 0 1 0 C1 41.58 1 83.16 1 126 C1.66 126 2.32 126 3 126 C3.33 127.32 3.66 128.64 4 130 C4.94877612 129.97003433 5.89755224 129.94006866 6.87507915 129.90919495 C32.73818237 129.10748161 58.57307133 128.87252166 84.44731164 128.93153763 C89.54976503 128.94175184 94.652223 128.94506953 99.75468445 128.94897461 C112.60730001 128.95989893 125.45989663 128.97955903 138.3125 129 C152.32760966 129.02212944 166.34271284 129.0425696 180.35783643 129.05341816 C186.40619704 129.05839189 192.45452408 129.0682318 198.50287116 129.08184814 C202.23409952 129.0892771 205.96532323 129.09261634 209.696558 129.0948143 C211.4292529 129.09669301 213.16194687 129.10030714 214.89463425 129.10574722 C217.24999393 129.11291439 219.60527893 129.11400325 221.96064758 129.11352539 C223.27977803 129.115746 224.59890848 129.11796661 225.95801258 129.12025452 C228.91856023 129.21219241 228.91856023 129.21219241 231 128 C231.02894547 124.54168414 231.04678 121.08339928 231.0625 117.625 C231.07087891 116.64015625 231.07925781 115.6553125 231.08789062 114.640625 C231.09111328 113.69960937 231.09433594 112.75859375 231.09765625 111.7890625 C231.10289307 110.91975098 231.10812988 110.05043945 231.11352539 109.15478516 C231.14122351 106.94950006 231.14122351 106.94950006 230 105 C230.22821713 103.13905002 230.46189405 101.27861711 230.72213745 99.421875 C231.25259764 94.79833622 231.24100598 90.14932711 231.31640625 85.5 C231.3475779 83.88557007 231.3475779 83.88557007 231.37937927 82.23852539 C231.44437179 78.82574385 231.50352425 75.41289028 231.5625 72 C231.60573313 69.67577403 231.6493489 67.35155513 231.69335938 65.02734375 C231.8000011 59.35163698 231.90185764 53.67585976 232 48 C232.33 48 232.66 48 233 48 C233.33 75.72 233.66 103.44 234 132 C156.78 132 79.56 132 0 132 C0 88.44 0 44.88 0 0 Z " fill="#74C16F" transform="translate(12,112)"/>
<path d="M0 0 C0.67869141 0.96679688 0.67869141 0.96679688 1.37109375 1.953125 C3.23128091 4.29062637 4.10143388 4.62599147 7 5 C7.66 5 8.32 5 9 5 C9.33 4.34 9.66 3.68 10 3 C7.60516964 21.29154915 -3.73826602 36.95115681 -15 51 C-15.33 50.34 -15.66 49.68 -16 49 C-16.99 48.67 -17.98 48.34 -19 48 C-18.7525 46.2984375 -18.7525 46.2984375 -18.5 44.5625 C-18.14367797 42.28867481 -18.14367797 42.28867481 -18 40 C-18.66 39.67 -19.32 39.34 -20 39 C-19.59910156 38.47535156 -19.19820313 37.95070313 -18.78515625 37.41015625 C-10.46784142 26.07522153 -3.74312914 13.58520297 0 0 Z " fill="#DEE2DD" transform="translate(486,406)"/>
<path d="M0 0 C0.55429687 0.69738281 1.10859375 1.39476562 1.6796875 2.11328125 C11.62219173 14.48282776 21.51673892 26.33628756 35 35 C33 36 33 36 31 36 C31.30921884 37.45903258 31.62248799 38.91720722 31.9375 40.375 C32.11152344 41.18710937 32.28554688 41.99921875 32.46484375 42.8359375 C32.92330693 45.029463 32.92330693 45.029463 34 47 C30.63407005 45.39298831 27.48060336 43.52934654 24.3125 41.5625 C23.33925781 40.96566406 22.36601563 40.36882812 21.36328125 39.75390625 C19 38 19 38 18 35 C16.13354289 33.94673359 16.13354289 33.94673359 14 33 C6.85269329 27.78777196 1.4852973 20.84538126 -4 14 C-3 12 -3 12 0 11 C0.38218767 9.34385343 0.71395102 7.67542976 1 6 C0.67 5.67 0.34 5.34 0 5 C-0.04063832 3.33382885 -0.042721 1.66611905 0 0 Z " fill="#E3E7E3" transform="translate(29,435)"/>
<path d="M0 0 C0 0.66 0 1.32 0 2 C-2 3.625 -2 3.625 -4 5 C-3.649375 5.556875 -3.29875 6.11375 -2.9375 6.6875 C-1.71029205 9.71461294 -1.90432549 10.92298074 -3 14 C-5.01365788 15.70022509 -6.8526671 17.05201616 -9.0625 18.4375 C-10.24561183 19.21489907 -11.42790435 19.99354646 -12.609375 20.7734375 C-13.18751953 21.14952148 -13.76566406 21.52560547 -14.36132812 21.91308594 C-17.68757778 24.11935284 -20.83945409 26.56513835 -24 29 C-24.99 27.68 -25.98 26.36 -27 25 C-32.35152885 25.32433508 -35.28280043 28.49704824 -39 32 C-39 28.54325433 -38.69538454 28.30631394 -36.39453125 25.9609375 C-35.54640869 25.09601685 -35.54640869 25.09601685 -34.68115234 24.21362305 C-34.06449707 23.60687744 -33.4478418 23.00013184 -32.8125 22.375 C-31.87204834 21.44264526 -31.87204834 21.44264526 -30.91259766 20.49145508 C-16.33466132 6.3758173 -16.33466132 6.3758173 -8 5 C-8 4.34 -8 3.68 -8 3 C-2.25 0 -2.25 0 0 0 Z " fill="#EBEDEA" transform="translate(71,13)"/>
<path d="M0 0 C0.66 0.33 1.32 0.66 2 1 C1.67386719 1.8971875 1.34773438 2.794375 1.01171875 3.71875 C0.56970677 4.97895437 0.12833666 6.239384 -0.3125 7.5 C-0.74175781 8.7065625 -1.17101563 9.913125 -1.61328125 11.15625 C-6.50177423 27.39397398 -6.47682968 43.45884749 -6.50611091 60.27694321 C-6.51560247 63.93379726 -6.54181286 67.59053426 -6.56611633 71.24731445 C-6.6094925 78.14578837 -6.63821557 85.0442392 -6.66143972 91.9428072 C-6.68864794 99.80766784 -6.73254856 107.67240903 -6.77772844 115.53718376 C-6.87016012 131.69139714 -6.94143688 147.84562788 -7 164 C-10.3 164 -13.6 164 -17 164 C-17 119.78 -17 75.56 -17 30 C-16.67 30 -16.34 30 -16 30 C-16 73.89 -16 117.78 -16 163 C-13.69 163 -11.38 163 -9 163 C-8.99668985 162.30923213 -8.99337971 161.61846426 -8.98996925 160.90676403 C-8.9085819 144.06221556 -8.81643855 127.21776324 -8.71247292 110.37333965 C-8.66245159 102.22734625 -8.61600789 94.08136238 -8.578125 85.93530273 C-8.54507892 78.83129997 -8.50517901 71.72737358 -8.45720994 64.62345535 C-8.43206972 60.86553265 -8.41025238 57.10765979 -8.39665604 53.34967613 C-8.38372142 49.80462181 -8.36154734 46.25973953 -8.33261681 42.71478081 C-8.31937935 40.8096742 -8.31564171 38.9045088 -8.31230164 36.99935913 C-8.13062806 18.13062806 -8.13062806 18.13062806 -5 15 C-4.896875 13.989375 -4.79375 12.97875 -4.6875 11.9375 C-3.8929333 7.38679984 -2.23111563 3.99525357 0 0 Z " fill="#C3D5C1" transform="translate(19,80)"/>
<path d="M0 0 C0.99 0.495 0.99 0.495 2 1 C2.16782208 7.95988933 2.32778626 14.91992681 2.48217773 21.88012695 C2.53568644 24.24996064 2.59102231 26.61975379 2.64819336 28.98950195 C2.72985758 32.38744357 2.80503992 35.78547482 2.87890625 39.18359375 C2.91945885 40.7835746 2.91945885 40.7835746 2.96083069 42.4158783 C2.99097511 43.88729027 2.99097511 43.88729027 3.02172852 45.38842773 C3.04171402 46.25668686 3.06169952 47.12494598 3.08229065 48.01951599 C3 50 3 50 2 51 C1.90052571 53.07431742 1.87200368 55.15205903 1.87060547 57.22875977 C1.86885315 57.87929825 1.86710083 58.52983673 1.86529541 59.2000885 C1.86087339 61.36388778 1.86381846 63.52760605 1.8671875 65.69140625 C1.86651399 67.19538895 1.86554357 68.69937155 1.86428833 70.20335388 C1.86281042 73.3651533 1.86496676 76.52692455 1.86962891 79.6887207 C1.8752921 83.7246583 1.8720696 87.7605289 1.86605644 91.79646397 C1.86242403 94.90816237 1.86360227 98.01984521 1.86618423 101.13154411 C1.86684789 102.61816351 1.86604485 104.10478435 1.86370468 105.59140205 C1.85485832 112.79938759 1.90611318 119.86159795 3 127 C3.07105859 129.45810083 3.13338137 131.91646788 3.1875 134.375 C3.82461521 148.15241165 9.39648565 161.05747405 16 173 C15.01 173.99 15.01 173.99 14 175 C4.60101569 157.46144864 -0.1719359 141.74065076 -0.11352539 121.69921875 C-0.11367142 120.38131851 -0.11381744 119.06341827 -0.1139679 117.70558167 C-0.11425337 114.11318092 -0.10839709 110.52081395 -0.10139394 106.92842102 C-0.09511875 103.16614964 -0.09455332 99.40387737 -0.09336853 95.64160156 C-0.09026746 88.52679273 -0.08207064 81.41199938 -0.07201904 74.29719734 C-0.06081981 66.19317783 -0.05533787 58.08915755 -0.05032361 49.98513222 C-0.03988694 33.32341244 -0.02231131 16.6617082 0 0 Z " fill="#5FBE5B" transform="translate(13,257)"/>
<path d="M0 0 C1.91898605 -0.00043808 1.91898605 -0.00043808 3.8767395 -0.00088501 C7.3491757 -0.0014536 10.8214708 0.0102197 14.2938745 0.02426291 C17.9360059 0.03685354 21.57814133 0.03794728 25.22029114 0.04031372 C32.1012781 0.04650419 38.98220072 0.06288171 45.86315948 0.0830127 C53.70364325 0.10544789 61.54413026 0.1163842 69.38463819 0.12640357 C85.49840635 0.14725039 101.61210997 0.18237851 117.72583008 0.22705078 C117.06583008 1.54705078 116.40583008 2.86705078 115.72583008 4.22705078 C115.72583008 3.56705078 115.72583008 2.90705078 115.72583008 2.22705078 C98.73186222 2.33430541 81.73794105 2.44706961 64.74405384 2.56639004 C56.85347269 2.62166434 48.96288701 2.67513678 41.07226562 2.72436523 C34.19467937 2.76727809 27.31712562 2.81357389 20.43958968 2.86392933 C16.79811904 2.89047311 13.15665461 2.91532463 9.51514626 2.9361248 C5.44966469 2.95941009 1.38427402 2.99024809 -2.68115234 3.02172852 C-3.88812271 3.02748398 -5.09509308 3.03323944 -6.33863831 3.03916931 C-7.44776581 3.04895813 -8.55689331 3.05874695 -9.69963074 3.0688324 C-10.66106082 3.07528495 -11.6224909 3.0817375 -12.61305523 3.08838558 C-15.28794472 3.14483512 -15.28794472 3.14483512 -17.87257862 3.86193943 C-20.7211775 4.29500886 -21.87688752 3.73645081 -24.27416992 2.22705078 C-16.11205877 0.41956068 -8.34291534 -0.05060758 0 0 Z " fill="#81C580" transform="translate(128.274169921875,9.77294921875)"/>
<path d="M0 0 C-3.19738473 3.19738473 -6.04401386 3.12624367 -10.35853577 3.13371277 C-11.47043777 3.13797775 -12.58233978 3.14224274 -13.72793579 3.14663696 C-14.94830536 3.14618378 -16.16867493 3.14573059 -17.42602539 3.14526367 C-19.3530706 3.15030159 -19.3530706 3.15030159 -21.31904602 3.15544128 C-24.84368839 3.16427927 -28.3683065 3.16661925 -31.89295888 3.16725707 C-34.83306683 3.16820614 -37.77316912 3.17188423 -40.7132749 3.17542917 C-47.64649933 3.18357216 -54.57971078 3.18601346 -61.51293945 3.18530273 C-68.67310297 3.18470126 -75.83319131 3.19526737 -82.99333578 3.2110464 C-89.13605545 3.22410257 -95.27875049 3.22948748 -101.42148393 3.22884732 C-105.09247412 3.22859187 -108.76339745 3.23146958 -112.43437386 3.24202538 C-116.5240917 3.25346452 -120.61363982 3.24897141 -124.70336914 3.24291992 C-125.92576294 3.24853943 -127.14815674 3.25415894 -128.40759277 3.25994873 C-130.07121605 3.253657 -130.07121605 3.253657 -131.76844788 3.24723816 C-132.73612123 3.24778293 -133.70379457 3.24832769 -134.70079136 3.24888897 C-137 3 -137 3 -139 1 C-122.05788962 0.86924269 -105.11577657 0.73883752 -88.17366028 0.60884857 C-80.3066902 0.54848082 -72.43972102 0.48799898 -64.57275391 0.42724609 C-57.71384606 0.37427827 -50.85493658 0.321527 -43.99602509 0.26903296 C-40.36618427 0.24124482 -36.73634434 0.21335015 -33.10650635 0.18519592 C-29.04887134 0.15372763 -24.99123277 0.12274292 -20.93359375 0.09179688 C-19.13931694 0.07777077 -19.13931694 0.07777077 -17.30879211 0.0634613 C-11.53898857 0.0198521 -5.76996807 -0.01037208 0 0 Z " fill="#DEFCDC" transform="translate(396,488)"/>
<path d="M0 0 C0.66 0 1.32 0 2 0 C2.09380529 17.32544391 2.1641553 34.65080758 2.20724869 51.97644806 C2.22779733 60.02263422 2.2557689 68.06866179 2.30175781 76.11474609 C2.34186327 83.13487696 2.36748862 90.15489287 2.37635398 97.17513514 C2.38152903 100.88585822 2.39352732 104.59625268 2.42292023 108.30686951 C2.64437918 137.37979072 2.64437918 137.37979072 -2 151 C-2.46859894 152.74727917 -2.92921472 154.49676159 -3.375 156.25 C-5.1801052 162.15945053 -8.11148859 167.55950278 -11 173 C-11.66 172.34 -12.32 171.68 -13 171 C-12.32130859 169.96166016 -12.32130859 169.96166016 -11.62890625 168.90234375 C-9.90067809 165.82303075 -8.92267616 162.94879377 -7.9375 159.5625 C-6.99824035 156.36750833 -6.06203663 153.18513678 -5.00390625 150.02734375 C1.00501593 131.90705313 0.27168065 113.30331874 0.1953125 94.43359375 C0.19044968 91.7002015 0.18863294 88.9668094 0.18673706 86.2334137 C0.18057237 79.82011471 0.16423102 73.40688562 0.14403808 66.99361712 C0.12152102 59.68019177 0.11064631 52.36676272 0.10064721 45.05331123 C0.07985904 30.03550218 0.04478292 15.01775815 0 0 Z " fill="#55AF54" transform="translate(488,257)"/>
<path d="M0 0 C2.475 0.495 2.475 0.495 5 1 C5 2.65 5 4.3 5 6 C6.32 5.67 7.64 5.34 9 5 C9 7.97 9 10.94 9 14 C9.99 14 10.98 14 12 14 C12 14.99 12 15.98 12 17 C13.32 16.34 14.64 15.68 16 15 C16.103125 15.763125 16.20625 16.52625 16.3125 17.3125 C17.05651197 20.22091043 17.79805587 21.07329888 20 23 C20.33 23.66 20.66 24.32 21 25 C22.32 25 23.64 25 25 25 C25 26.32 25 27.64 25 29 C25.7321875 29.09410156 26.464375 29.18820312 27.21875 29.28515625 C30.4148363 30.10662225 31.99621636 31.31721843 34.5 33.4375 C36.91257938 35.47205197 38.78781623 36.91530862 41.73046875 38.08984375 C42.47941406 38.39019531 43.22835937 38.69054687 44 39 C44.8125 41.125 44.8125 41.125 45 43 C39.56214488 41.53857644 35.53009913 38.96782904 31 35.75 C30.25959473 35.22494873 29.51918945 34.69989746 28.75634766 34.15893555 C18.66385474 26.7976195 3.35541929 14.95059332 0.0625 2.4375 C0.041875 1.633125 0.02125 0.82875 0 0 Z " fill="#5FB45C" transform="translate(31,434)"/>
<path d="M0 0 C1.216875 -0.020625 2.43375 -0.04125 3.6875 -0.0625 C4.71423828 -0.07990234 4.71423828 -0.07990234 5.76171875 -0.09765625 C8 0 8 0 10.28911114 0.49621487 C13.12301886 1.02286153 15.73137348 1.13902913 18.61250305 1.15821838 C19.73004471 1.1680072 20.84758636 1.17779602 21.99899292 1.18788147 C23.21531403 1.19363693 24.43163513 1.1993924 25.68481445 1.20532227 C27.61711662 1.22017166 27.61711662 1.22017166 29.5884552 1.23532104 C33.11282044 1.26229643 36.63719897 1.28334573 40.16160989 1.30332303 C43.84785128 1.32522816 47.53405204 1.35259466 51.22026062 1.37937927 C58.19701741 1.42924504 65.17379682 1.4742065 72.15059775 1.51740164 C80.09496661 1.56682636 88.0392947 1.62172504 95.9836241 1.67708123 C112.32237846 1.79080736 128.66117023 1.89766671 145 2 C145 2.33 145 2.66 145 3 C127.71871173 3.20111742 110.43733735 3.38435443 93.15564251 3.54658794 C85.13058437 3.6223361 77.10566294 3.70382805 69.08081055 3.79907227 C62.08242318 3.8821189 55.08402164 3.95415381 48.08538944 4.01323253 C44.3832093 4.04486188 40.68126343 4.08182331 36.97928429 4.13199425 C32.83608406 4.18793773 28.69303356 4.21928294 24.54956055 4.2487793 C23.33610962 4.26891586 22.12265869 4.28905243 20.87243652 4.30979919 C13.44834984 4.33767424 7.04464499 3.3635623 0 1 C0 0.67 0 0.34 0 0 Z " fill="#CDFACB" transform="translate(101,487)"/>
<path d="M0 0 C0.33 0 0.66 0 1 0 C1 29.04 1 58.08 1 88 C-0.32 87.67 -1.64 87.34 -3 87 C-2.01 87 -1.02 87 0 87 C-0.03029297 86.34741211 -0.06058594 85.69482422 -0.09179688 85.02246094 C-0.61376594 73.55921727 -1.0992386 62.10170396 -1.125 50.625 C-1.12951172 49.79452148 -1.13402344 48.96404297 -1.13867188 48.10839844 C-1.13035282 44.81543727 -1.04855242 42.14565726 0 39 C-0.66 39 -1.32 39 -2 39 C-2 36.69 -2 34.38 -2 32 C-1.34 32 -0.68 32 0 32 C-0.33 29.69 -0.66 27.38 -1 25 C-1.33 25 -1.66 25 -2 25 C-2.30221599 16.53795229 -1.14920797 8.36254017 0 0 Z " fill="#58B653" transform="translate(244,400)"/>
<path d="M0 0 C0.33 0 0.66 0 1 0 C1.07000815 17.9584004 1.12294788 35.9167655 1.15543652 53.87527275 C1.17092093 62.21328155 1.19204037 70.55120569 1.22631836 78.88916016 C1.2561727 86.15453239 1.27556354 93.41984333 1.28226548 100.6852752 C1.28618451 104.53409481 1.29542709 108.38273901 1.31719017 112.23150253 C1.3374929 115.85119577 1.34384654 119.47064067 1.33932304 123.09038544 C1.34054702 125.05812235 1.35672158 127.02583197 1.3732605 128.99349976 C1.36913651 130.15740234 1.36501251 131.32130493 1.36076355 132.52047729 C1.36352893 133.53629316 1.36629431 134.55210903 1.36914349 135.5987072 C1.24732614 136.39113382 1.12550879 137.18356045 1 138 C-0.485 138.99 -0.485 138.99 -2 140 C-1.93148331 139.2514122 -1.86296661 138.5028244 -1.79237366 137.73155212 C-0.74773816 124.58341243 -0.77731786 111.42070079 -0.69667697 98.23795438 C-0.67453671 94.77465522 -0.64728765 91.311396 -0.62062073 87.84812927 C-0.57106719 81.31440489 -0.5259928 74.78065789 -0.48259836 68.24689001 C-0.43290301 60.79804804 -0.37810661 53.34924618 -0.32291877 45.9004432 C-0.20967333 30.6003327 -0.10271339 15.30018505 0 0 Z " fill="#DDFFDB" transform="translate(491,256)"/>
<path d="M0 0 C1.65 0.33 3.3 0.66 5 1 C5 1.99 5 2.98 5 4 C5.94875 4.2475 6.8975 4.495 7.875 4.75 C11 6 11 6 12.3125 7.6875 C13.22449796 10.75512951 13.58911958 13.83035103 14 17 C14.33 17.66 14.66 18.32 15 19 C11.63407005 17.39298831 8.48060336 15.52934654 5.3125 13.5625 C4.33925781 12.96566406 3.36601563 12.36882812 2.36328125 11.75390625 C0 10 0 10 -1 7 C-3.00016466 5.79117904 -3.00016466 5.79117904 -5 5 C-4.360625 4.731875 -3.72125 4.46375 -3.0625 4.1875 C-0.66868314 3.11332248 -0.66868314 3.11332248 0 0 Z " fill="#D8D8D7" transform="translate(48,463)"/>
<path d="M0 0 C0.99 0 1.98 0 3 0 C3 42.24 3 84.48 3 128 C2.67 128 2.34 128 2 128 C1.82412633 118.52098909 1.65820074 109.04182063 1.5 99.5625 C1.48812275 98.85114899 1.4762455 98.13979797 1.46400833 97.40689087 C0.96463544 67.26912673 0.88297975 37.1418678 1 7 C0.67 7 0.34 7 0 7 C0 4.69 0 2.38 0 0 Z " fill="#68C362" transform="translate(242,257)"/>
<path d="M0 0 C0.33 0 0.66 0 1 0 C1.02312328 10.67419698 1.04091501 21.34838806 1.05181217 32.02260494 C1.05704103 36.97853922 1.06413874 41.93445642 1.07543945 46.89038086 C1.08626822 51.66898836 1.09227681 56.44757938 1.09487724 61.2261982 C1.09673151 63.05353619 1.10035216 64.88087324 1.10573006 66.70820427 C1.11294036 69.25853329 1.11399095 71.80879337 1.11352539 74.35913086 C1.11712067 75.12229614 1.12071594 75.88546143 1.12442017 76.67175293 C1.11405216 81.88594784 1.11405216 81.88594784 0 83 C-1.56172745 83.08685603 -3.12729344 83.10702219 -4.69140625 83.09765625 C-5.63564453 83.09443359 -6.57988281 83.09121094 -7.55273438 83.08789062 C-8.54595703 83.07951172 -9.53917969 83.07113281 -10.5625 83.0625 C-11.55958984 83.05798828 -12.55667969 83.05347656 -13.58398438 83.04882812 C-16.05604849 83.03700007 -18.52799518 83.02051849 -21 83 C-20.505 82.01 -20.505 82.01 -20 81 C-18.79601562 81.01160156 -17.59203125 81.02320313 -16.3515625 81.03515625 C-14.77604321 81.04453434 -13.20052225 81.05363452 -11.625 81.0625 C-10.43390625 81.07506836 -10.43390625 81.07506836 -9.21875 81.08789062 C-4.97607778 81.23040151 -4.97607778 81.23040151 -1 80 C-0.97105453 76.54168414 -0.95322 73.08339928 -0.9375 69.625 C-0.92912109 68.64015625 -0.92074219 67.6553125 -0.91210938 66.640625 C-0.90888672 65.69960937 -0.90566406 64.75859375 -0.90234375 63.7890625 C-0.89710693 62.91975098 -0.89187012 62.05043945 -0.88647461 61.15478516 C-0.85877649 58.94950006 -0.85877649 58.94950006 -2 57 C-1.77178287 55.13905002 -1.53810595 53.27861711 -1.27786255 51.421875 C-0.74740236 46.79833622 -0.75899402 42.14932711 -0.68359375 37.5 C-0.66281265 36.42371338 -0.64203156 35.34742676 -0.62062073 34.23852539 C-0.55562821 30.82574385 -0.49647575 27.41289028 -0.4375 24 C-0.39426687 21.67577403 -0.3506511 19.35155513 -0.30664062 17.02734375 C-0.1999989 11.35163698 -0.09814236 5.67585976 0 0 Z " fill="#66C260" transform="translate(244,160)"/>
<path d="M0 0 C0.99 0.33 1.98 0.66 3 1 C-9.40064732 14.58166136 -27.7769888 27.8375496 -46 32 C-46.99 31.67 -47.98 31.34 -49 31 C-45.79814224 28.25444564 -42.92931444 27.25725285 -38.875 26.1875 C-32.63980822 24.36479721 -27.21818327 21.90248749 -22 18 C-21.67 17.34 -21.34 16.68 -21 16 C-19.68 16 -18.36 16 -17 16 C-16.67 15.01 -16.34 14.02 -16 13 C-12.9375 11.8125 -12.9375 11.8125 -10 11 C-10 10.01 -10 9.02 -10 8 C-8.3203125 6.39453125 -8.3203125 6.39453125 -6.125 4.8125 C-5.40570313 4.28269531 -4.68640625 3.75289063 -3.9453125 3.20703125 C-2 2 -2 2 0 2 C0 1.34 0 0.68 0 0 Z " fill="#61B25F" transform="translate(457,452)"/>
<path d="M0 0 C0.54140625 0.68578125 1.0828125 1.3715625 1.640625 2.078125 C4.77825656 5.96380118 8.02894952 9.74867667 11.28515625 13.53515625 C15 17.89083558 15 17.89083558 15 19 C13.35 19 11.7 19 10 19 C9.7525 18.030625 9.505 17.06125 9.25 16.0625 C8.63125 14.5465625 8.63125 14.5465625 8 13 C5.96756452 12.03122943 5.96756452 12.03122943 4 12 C3.87625 12.763125 3.7525 13.52625 3.625 14.3125 C3 17 3 17 1 20 C-0.65 18.02 -2.3 16.04 -4 14 C-3 12 -3 12 0 11 C0.38218767 9.34385343 0.71395102 7.67542976 1 6 C0.67 5.67 0.34 5.34 0 5 C-0.04063832 3.33382885 -0.042721 1.66611905 0 0 Z " fill="#D1D7D0" transform="translate(29,435)"/>
<path d="M0 0 C0 3.80205426 -1.2000969 5.11156561 -3.375 8.1875 C-4.31472656 9.53908203 -4.31472656 9.53908203 -5.2734375 10.91796875 C-5.84320313 11.60503906 -6.41296875 12.29210938 -7 13 C-7.66 13 -8.32 13 -9 13 C-9 13.99 -9 14.98 -9 16 C-9.66 16 -10.32 16 -11 16 C-11.33 17.32 -11.66 18.64 -12 20 C-12.66 20 -13.32 20 -14 20 C-14.33 20.99 -14.66 21.98 -15 23 C-15.66 23 -16.32 23 -17 23 C-17.12375 23.70125 -17.2475 24.4025 -17.375 25.125 C-18.05143525 28.23660216 -18.7352744 31.07116177 -20 34 C-22.125 34.875 -22.125 34.875 -24 35 C-20.38640451 21.26833715 -9.34515838 10.15041012 0 0 Z " fill="#65B561" transform="translate(47,42)"/>
<path d="M0 0 C0 0.66 0 1.32 0 2 C-2.99039637 3.85642343 -6.07870444 5.48431657 -9.1796875 7.1484375 C-12.11396534 9.07481935 -12.61005592 9.94950325 -14 13 C-18.50335441 16.26042859 -23.66418322 18.49502604 -29 20 C-22.50636955 13.07346085 -9.9032992 0 0 0 Z " fill="#5FB65B" transform="translate(77,22)"/>
<path d="M0 0 C0.33 0 0.66 0 1 0 C0.51231226 7.60120196 -0.98137596 14.66664116 -3 22 C-3.21527344 22.845625 -3.43054688 23.69125 -3.65234375 24.5625 C-5.53134778 31.50036102 -8.63778749 37.66728906 -12 44 C-12.66 43.34 -13.32 42.68 -14 42 C-13.54753906 41.30777344 -13.09507812 40.61554688 -12.62890625 39.90234375 C-10.90067809 36.82303075 -9.92267616 33.94879377 -8.9375 30.5625 C-7.47445261 25.58578859 -5.92829578 20.6595674 -4.21875 15.76171875 C-2.42007202 10.5709687 -1.08199996 5.38454098 0 0 Z " fill="#66B462" transform="translate(489,386)"/>
<path d="M0 0 C0.33 0 0.66 0 1 0 C1.06316406 0.98355469 1.12632813 1.96710938 1.19140625 2.98046875 C2.54871454 19.60343152 7.79439561 35.48239224 16 50 C15.34 50.66 14.68 51.32 14 52 C6.07478572 37.21151082 -0.2569127 22.60831749 -0.0625 5.5 C-0.05347656 4.4584375 -0.04445313 3.416875 -0.03515625 2.34375 C-0.02355469 1.5703125 -0.01195312 0.796875 0 0 Z " fill="#6BB567" transform="translate(13,380)"/>
<path d="M0 0 C1.3125 2.0625 1.3125 2.0625 2 4 C0.68 4 -0.64 4 -2 4 C-2.061875 4.5775 -2.12375 5.155 -2.1875 5.75 C-3.32027301 8.88690987 -5.34197595 10.09167504 -8 12 C-8 10.68 -8 9.36 -8 8 C-8.99 7.67 -9.98 7.34 -11 7 C-6.1003861 -1.98262548 -6.1003861 -1.98262548 0 0 Z " fill="#FAFCFA" transform="translate(45,38)"/>
<path d="M0 0 C1.32 0.33 2.64 0.66 4 1 C2.96552734 2.05574219 2.96552734 2.05574219 1.91015625 3.1328125 C-4.3181815 9.62846088 -9.43963859 16.28808417 -14.125 23.96875 C-15.64715023 26.42955953 -17.21669193 28.72628221 -19 31 C-18.49287967 27.28111761 -17.88391785 24.26545761 -16 21 C-15.34 21 -14.68 21 -14 21 C-14 20.01 -14 19.02 -14 18 C-13.34 18 -12.68 18 -12 18 C-11.87431641 17.17242187 -11.87431641 17.17242187 -11.74609375 16.328125 C-10.75830535 13.24581146 -9.09258173 11.26098716 -7.0625 8.75 C-6.35222656 7.85796875 -5.64195313 6.9659375 -4.91015625 6.046875 C-4.27980469 5.37140625 -3.64945313 4.6959375 -3 4 C-2.34 4 -1.68 4 -1 4 C-0.67 2.68 -0.34 1.36 0 0 Z " fill="#DAF9D7" transform="translate(43,42)"/>
<path d="M0 0 C0.33 0 0.66 0 1 0 C1.02764495 2.1040882 1.04667887 4.20828968 1.0625 6.3125 C1.07410156 7.48425781 1.08570313 8.65601562 1.09765625 9.86328125 C1.06168807 13.94288285 0.64993522 17.9645262 0.25610352 22.02270508 C-0.19233191 27.23592715 -0.36721765 32.4596954 -0.5625 37.6875 C-0.60568359 38.78255859 -0.64886719 39.87761719 -0.69335938 41.00585938 C-0.79808269 43.67048597 -0.90025779 46.33518311 -1 49 C-1.33 49 -1.66 49 -2 49 C-2.04990393 43.78964592 -2.08595515 38.57943482 -2.10986328 33.36889648 C-2.11984339 31.60096814 -2.13343228 29.83305597 -2.15087891 28.06518555 C-2.3319431 9.22918405 -2.3319431 9.22918405 0 0 Z " fill="#55B150" transform="translate(15,96)"/>
<path d="M0 0 C0.66 0 1.32 0 2 0 C2.33 1.32 2.66 2.64 3 4 C15.87 3.67 28.74 3.34 42 3 C38.06695528 5.62202981 34.73374931 5.25148527 30.17578125 5.1953125 C29.31438034 5.1924826 28.45297943 5.18965271 27.56547546 5.18673706 C24.81434231 5.17554237 22.06353475 5.15043921 19.3125 5.125 C17.44727033 5.11496927 15.58203555 5.10584359 13.71679688 5.09765625 C9.1444058 5.07560538 4.57225811 5.04108049 0 5 C0 3.35 0 1.7 0 0 Z " fill="#6BC767" transform="translate(13,238)"/>
<path d="M0 0 C4.95 1.98 4.95 1.98 10 4 C9.34 4.9075 8.68 5.815 8 6.75 C5.65060172 9.93175815 5.65060172 9.93175815 6 14 C5.34 14 4.68 14 4 14 C1.77343836 9.25645564 0.53851968 5.27749285 0 0 Z " fill="#E5ECE6" transform="translate(59,469)"/>
<path d="M0 0 C5.28 0.33 10.56 0.66 16 1 C16 1.66 16 2.32 16 3 C17.17369141 3.18175781 17.17369141 3.18175781 18.37109375 3.3671875 C19.38300781 3.53476562 20.39492187 3.70234375 21.4375 3.875 C22.95150391 4.11863281 22.95150391 4.11863281 24.49609375 4.3671875 C25.32238281 4.57601563 26.14867188 4.78484375 27 5 C27.33 5.66 27.66 6.32 28 7 C18.00376278 6.79174506 9.35632897 4.21772227 0 1 C0 0.67 0 0.34 0 0 Z " fill="#69B667" transform="translate(85,481)"/>
<path d="M0 0 C4.23165358 -0.35139173 6.22256882 0.45290679 9.625 2.9375 C12.18409794 4.78476694 13.98184875 5.99394958 17 7 C17.6875 9.0625 17.6875 9.0625 18 11 C13.28501126 9.64780353 9.67370412 7.69161848 5.625 4.9375 C4.56539062 4.22464844 3.50578125 3.51179688 2.4140625 2.77734375 C1.61742187 2.19082031 0.82078125 1.60429687 0 1 C0 0.67 0 0.34 0 0 Z " fill="#64B663" transform="translate(58,466)"/>
<path d="M0 0 C0 0.99 0 1.98 0 3 C-3.41180631 4.27942737 -6.57650869 5.13289367 -10.1875 5.5 C-14.06259711 5.72265676 -14.06259711 5.72265676 -17 8 C-17.66 7.34 -18.32 6.68 -19 6 C-16.58660204 4.99141578 -14.16981325 3.99297327 -11.75 3 C-11.06808594 2.71382812 -10.38617188 2.42765625 -9.68359375 2.1328125 C-6.18584265 0.70654506 -3.83099811 0 0 0 Z " fill="#68B965" transform="translate(96,15)"/>
<path d="M0 0 C0.66 0.33 1.32 0.66 2 1 C0.76302083 2.46484375 -0.47395833 3.9296875 -1.7109375 5.39453125 C-2.89201099 6.8655046 -3.95358529 8.43037794 -5 10 C-6.5075374 11.27079416 -8.05304877 12.49730836 -9.625 13.6875 C-10.85089844 14.62142578 -10.85089844 14.62142578 -12.1015625 15.57421875 C-13.04128906 16.27998047 -13.04128906 16.27998047 -14 17 C-14 14 -14 14 -12.71484375 12.37426758 C-12.12832031 11.80345459 -11.54179688 11.2326416 -10.9375 10.64453125 C-10.30585937 10.02255859 -9.67421875 9.40058594 -9.0234375 8.75976562 C-8.35570312 8.11716797 -7.68796875 7.47457031 -7 6.8125 C-6.33226562 6.15830078 -5.66453125 5.50410156 -4.9765625 4.83007812 C-3.32421559 3.21313865 -1.66528399 1.60359509 0 0 Z " fill="#848685" transform="translate(46,28)"/>
<path d="M0 0 C0.72256485 0.00141495 1.4451297 0.0028299 2.18959045 0.00428772 C4.4714899 0.009834 6.75328704 0.02237605 9.03515625 0.03515625 C10.59309753 0.04017821 12.15104037 0.04473989 13.70898438 0.04882812 C17.50524706 0.05978575 21.30143438 0.07701253 25.09765625 0.09765625 C25.09765625 0.42765625 25.09765625 0.75765625 25.09765625 1.09765625 C24.1847583 1.1227124 23.27186035 1.14776855 22.33129883 1.17358398 C18.92997994 1.26897232 15.52881686 1.36819027 12.12768555 1.4699707 C10.65832857 1.5131633 9.18892645 1.55484881 7.71948242 1.5949707 C5.6019127 1.65305507 3.48456688 1.71663723 1.3671875 1.78125 C-0.54163208 1.83623657 -0.54163208 1.83623657 -2.48901367 1.89233398 C-5.82138781 2.01146267 -5.82138781 2.01146267 -8.7121582 2.67602539 C-11.44534083 3.20218818 -12.59210755 2.55224941 -14.90234375 1.09765625 C-9.90244783 0.27618387 -5.07057357 -0.03816605 0 0 Z " fill="#5DAB59" transform="translate(118.90234375,10.90234375)"/>
<path d="M0 0 C0.99 0 1.98 0 3 0 C2.42012094 3.36329858 1.42075735 4.6723487 -1 7 C-1.45375 7.845625 -1.9075 8.69125 -2.375 9.5625 C-4.29492093 12.44238139 -5.73894457 13.03049703 -9 14 C-8.02402398 12.31915242 -7.01488468 10.65764498 -6 9 C-5.52820313 8.22914063 -5.05640625 7.45828125 -4.5703125 6.6640625 C-4.05210937 5.84679687 -3.53390625 5.02953125 -3 4.1875 C-2.505 3.39730469 -2.01 2.60710937 -1.5 1.79296875 C-1.005 1.20128906 -0.51 0.60960937 0 0 Z " fill="#E0FADF" transform="translate(475,432)"/>
<path d="M0 0 C2 3 2 3 2 5 C1.34 5 0.68 5 0 5 C-0.0825 5.556875 -0.165 6.11375 -0.25 6.6875 C-1.23041937 9.71045973 -2.95864111 11.58748494 -5 14 C-5.66 14.99 -6.32 15.98 -7 17 C-6.67 14.03 -6.34 11.06 -6 8 C-4.68 7.67 -3.36 7.34 -2 7 C-2.04125 6.21625 -2.0825 5.4325 -2.125 4.625 C-2 2 -2 2 0 0 Z " fill="#4BBA46" transform="translate(29,69)"/>
<path d="M0 0 C5.33333333 4 10.66666667 8 16 12 C14 13 14 13 10.9375 12.1875 C8 11 8 11 7 9 C6.34 9 5.68 9 5 9 C5 8.01 5 7.02 5 6 C4.360625 5.7525 3.72125 5.505 3.0625 5.25 C1 4 1 4 0.37109375 1.921875 C0.24863281 1.28765625 0.12617187 0.6534375 0 0 Z " fill="#DCF9DA" transform="translate(48,458)"/>
<path d="M0 0 C1.20869684 4.04913443 0.50321648 6.01647633 -1 10 C-1.54724216 11.62313086 -2.08869929 13.24822118 -2.625 14.875 C-3.08333333 16.25 -3.54166667 17.625 -4 19 C-4.66 19 -5.32 19 -6 19 C-4.91081033 12.13523882 -3.09761199 6.22529789 0 0 Z " fill="#6BB969" transform="translate(22,77)"/>
<path d="M0 0 C1.32 0.33 2.64 0.66 4 1 C1.89605554 2.45865479 -0.2081464 3.91693566 -2.3125 5.375 C-2.90740234 5.7875 -3.50230469 6.2 -4.11523438 6.625 C-6.73083402 8.43692377 -9.35242582 10.23495055 -12 12 C-11.8125 9.6875 -11.8125 9.6875 -11 7 C-8.5 5.3125 -8.5 5.3125 -6 4 C-5.67 3.34 -5.34 2.68 -5 2 C-3.35 2 -1.7 2 0 2 C0 1.34 0 0.68 0 0 Z " fill="#DCFADA" transform="translate(64,26)"/>
<path d="M0 0 C-3.62431853 1.98693604 -7.45943966 3.22821367 -11.375 4.5 C-12.02210937 4.71269531 -12.66921875 4.92539062 -13.3359375 5.14453125 C-15.22337521 5.76479808 -17.11167651 6.38243508 -19 7 C-21.00044908 7.6653179 -23.00061987 8.33147661 -25 9 C-25 8.34 -25 7.68 -25 7 C-22.58459694 6.01761592 -20.16778178 5.03899782 -17.75 4.0625 C-17.06808594 3.78470703 -16.38617188 3.50691406 -15.68359375 3.22070312 C-10.1188 0.97857749 -6.00083737 -0.13638267 0 0 Z " fill="#DCFADA" transform="translate(100,13)"/>
<path d="M0 0 C7.34918342 -0.43230491 13.90215087 1.18225815 21 3 C21 3.33 21 3.66 21 4 C13.48193151 4.44032071 7.15775723 3.28612778 0 1 C0 0.67 0 0.34 0 0 Z " fill="#E1FAE0" transform="translate(101,487)"/>
<path d="M0 0 C0.66 0 1.32 0 2 0 C0.55901911 4.12678821 -1.47299494 7.30186428 -4.0625 10.8125 C-4.77535156 11.78832031 -5.48820312 12.76414062 -6.22265625 13.76953125 C-7.10244141 14.87361328 -7.10244141 14.87361328 -8 16 C-8.33 16 -8.66 16 -9 16 C-9.3125 13.8125 -9.3125 13.8125 -9 11 C-6.625 8.1875 -6.625 8.1875 -4 6 C-3.34 6 -2.68 6 -2 6 C-1.855625 5.195625 -1.71125 4.39125 -1.5625 3.5625 C-1 1 -1 1 0 0 Z " fill="#64B462" transform="translate(472,433)"/>
<path d="M0 0 C2.475 0.495 2.475 0.495 5 1 C5 2.65 5 4.3 5 6 C6.32 5.67 7.64 5.34 9 5 C9 6.98 9 8.96 9 11 C5.62169447 9.55215477 3.35038972 7.83667724 1 5 C0.25 2.25 0.25 2.25 0 0 Z " fill="#52B84C" transform="translate(31,434)"/>
<path d="M0 0 C0.33 0 0.66 0 1 0 C1 1.65 1 3.3 1 5 C0.071875 5.12375 0.071875 5.12375 -0.875 5.25 C-3.18437567 5.81258459 -3.18437567 5.81258459 -4.25 8.0625 C-4.4975 8.701875 -4.745 9.34125 -5 10 C-5.66 10 -6.32 10 -7 10 C-7.33 10.66 -7.66 11.32 -8 12 C-8.99 11.34 -9.98 10.68 -11 10 C-9.93458984 9.04287109 -9.93458984 9.04287109 -8.84765625 8.06640625 C-7.46900391 6.82697266 -7.46900391 6.82697266 -6.0625 5.5625 C-4.68771484 4.32693359 -4.68771484 4.32693359 -3.28515625 3.06640625 C-1.61665644 1.56046061 -1.61665644 1.56046061 0 0 Z " fill="#DDF8DE" transform="translate(459,453)"/>
<path d="M0 0 C4.23985937 4.11137878 8.27845742 8.40973998 12 13 C12 13.33 12 13.66 12 14 C10.35 14 8.7 14 7 14 C6.7525 13.0925 6.505 12.185 6.25 11.25 C4.93949487 7.84268666 3.5712216 6.48827897 1 4 C0.25 1.75 0.25 1.75 0 0 Z " fill="#D6F6D4" transform="translate(32,440)"/>
<path d="M0 0 C0.33 0 0.66 0 1 0 C1.05428973 2.22889496 1.09292338 4.45817471 1.125 6.6875 C1.14820313 7.92886719 1.17140625 9.17023438 1.1953125 10.44921875 C1.01032021 13.81237857 0.45767895 15.9985587 -1 19 C-1.33 19 -1.66 19 -2 19 C-2.24794402 12.4294834 -1.32388229 6.43028541 0 0 Z " fill="#67B664" transform="translate(15,96)"/>
<path d="M0 0 C0 0.66 0 1.32 0 2 C-2.046875 3.54296875 -2.046875 3.54296875 -4.75 5.1875 C-5.63171875 5.73792969 -6.5134375 6.28835937 -7.421875 6.85546875 C-10 8 -10 8 -12.328125 7.67578125 C-12.87984375 7.45277344 -13.4315625 7.22976562 -14 7 C-12.04480616 5.82807953 -10.0857461 4.6626071 -8.125 3.5 C-7.03445312 2.8503125 -5.94390625 2.200625 -4.8203125 1.53125 C-2 0 -2 0 0 0 Z " fill="#6BBA68" transform="translate(77,22)"/>
<path d="M0 0 C1.32 0.33 2.64 0.66 4 1 C3.67 2.65 3.34 4.3 3 6 C2.01 6 1.02 6 0 6 C0 6.66 0 7.32 0 8 C-0.66 8 -1.32 8 -2 8 C-2 6.02 -2 4.04 -2 2 C-1.34 2 -0.68 2 0 2 C0 1.34 0 0.68 0 0 Z " fill="#121314" transform="translate(250,0)"/>
<path d="M0 0 C1.98 0.99 1.98 0.99 4 2 C4 2.66 4 3.32 4 4 C5.32 4.66 6.64 5.32 8 6 C8 6.99 8 7.98 8 9 C8.66 9 9.32 9 10 9 C9.67 9.99 9.34 10.98 9 12 C7.49707257 10.18992669 5.99772829 8.37687764 4.5 6.5625 C3.6646875 5.55316406 2.829375 4.54382813 1.96875 3.50390625 C0 1 0 1 0 0 Z " fill="#68B465" transform="translate(32,439)"/>
<path d="M0 0 C4.29 0 8.58 0 13 0 C9.3750203 1.81248985 7.62740416 2.31888915 3.75 2.625 C2.85796875 2.69976562 1.9659375 2.77453125 1.046875 2.8515625 C0.37140625 2.90054687 -0.3040625 2.94953125 -1 3 C-0.67 2.01 -0.34 1.02 0 0 Z " fill="#DEFBDB" transform="translate(102,10)"/>
<path d="M0 0 C3.125 0.375 3.125 0.375 6 1 C6.33 2.32 6.66 3.64 7 5 C4.03 4.01 1.06 3.02 -2 2 C-1.34 1.34 -0.68 0.68 0 0 Z " fill="#68BA65" transform="translate(78,476)"/>
<path d="M0 0 C0.33 0.99 0.66 1.98 1 3 C-1.25 5.0625 -1.25 5.0625 -4 7 C-5.32 6.67 -6.64 6.34 -8 6 C-5.36 4.02 -2.72 2.04 0 0 Z " fill="#DCF8D9" transform="translate(447,464)"/>
<path d="M0 0 C0.66 0.33 1.32 0.66 2 1 C-1.42388092 4.82669043 -4.00724943 6.72278474 -9 8 C-6.14723863 5.06799526 -3.34920216 2.35684596 0 0 Z " fill="#757875" transform="translate(57,20)"/>
<path d="M0 0 C0.99 0 1.98 0 3 0 C3 2.64 3 5.28 3 8 C1.35 8.33 -0.3 8.66 -2 9 C-2 8.34 -2 7.68 -2 7 C-1.34 7 -0.68 7 0 7 C0 4.69 0 2.38 0 0 Z " fill="#050504" transform="translate(253,0)"/>
<path d="M0 0 C1.98 0.66 3.96 1.32 6 2 C5.67 3.32 5.34 4.64 5 6 C4.34 6 3.68 6 3 6 C3 6.66 3 7.32 3 8 C2.34 7.67 1.68 7.34 1 7 C0.59270772 4.67843403 0.25561323 2.3431213 0 0 Z " fill="#F6FCF1" transform="translate(59,469)"/>
<path d="M0 0 C0.66 0 1.32 0 2 0 C2.433125 1.2065625 2.433125 1.2065625 2.875 2.4375 C3.73262568 5.1326468 3.73262568 5.1326468 6 6 C5.01 7.32 4.02 8.64 3 10 C0 3.375 0 3.375 0 0 Z " fill="#51BD4C" transform="translate(17,401)"/>
<path d="M0 0 C0.66 0.33 1.32 0.66 2 1 C1.38348417 2.6490302 0.75652258 4.29415841 0.125 5.9375 C-0.22304688 6.85402344 -0.57109375 7.77054687 -0.9296875 8.71484375 C-2 11 -2 11 -4 12 C-3.33501617 7.61110675 -1.81242323 4.0188515 0 0 Z " fill="#E8FDE0" transform="translate(19,80)"/>
<path d="M0 0 C1.32 0.33 2.64 0.66 4 1 C1.69 3.31 -0.62 5.62 -3 8 C-3.66 7.67 -4.32 7.34 -5 7 C-4.34 6.01 -3.68 5.02 -3 4 C-2.34 4 -1.68 4 -1 4 C-0.67 2.68 -0.34 1.36 0 0 Z " fill="#E3FBDE" transform="translate(43,42)"/>
<path d="M0 0 C1.40253926 4.20761779 -0.09397469 6.11735584 -2 10 C-2.66 10.66 -3.32 11.32 -4 12 C-3.45660208 7.43545749 -2.20536179 4.0271824 0 0 Z " fill="#4FB74E" transform="translate(479,416)"/>
<path d="M0 0 C1.45742463 -0.08096803 2.91612807 -0.13917774 4.375 -0.1875 C5.18710938 -0.22230469 5.99921875 -0.25710938 6.8359375 -0.29296875 C7.55007812 -0.19628906 8.26421875 -0.09960938 9 0 C9.66 0.99 10.32 1.98 11 3 C7.7 3 4.4 3 1 3 C0.67 2.01 0.34 1.02 0 0 Z " fill="#4CB84C" transform="translate(75,474)"/>
<path d="M0 0 C2.1875 -0.3125 2.1875 -0.3125 5 0 C7.8125 2.5 7.8125 2.5 10 5 C9.67 5.66 9.34 6.32 9 7 C7.4972763 6.02501855 5.99788037 5.04490611 4.5 4.0625 C3.6646875 3.51722656 2.829375 2.97195313 1.96875 2.41015625 C1.3190625 1.94480469 0.669375 1.47945313 0 1 C0 0.67 0 0.34 0 0 Z " fill="#6DB76B" transform="translate(58,466)"/>
<path d="M0 0 C0.33 0 0.66 0 1 0 C1.33 4.29 1.66 8.58 2 13 C1.01 13.66 0.02 14.32 -1 15 C-0.67 10.05 -0.34 5.1 0 0 Z " fill="#D1F6D2" transform="translate(490,381)"/>
<path d="M0 0 C0 0.33 0 0.66 0 1 C-5.19548425 3.20808081 -8.58264203 2.93402724 -14 2 C-14 1.67 -14 1.34 -14 1 C-9.27685687 0.22887459 -4.78478822 -0.09764874 0 0 Z " fill="#6EBA6D" transform="translate(118,11)"/>
<path d="M0 0 C0.33 0.66 0.66 1.32 1 2 C0.34 1.67 -0.32 1.34 -1 1 C-0.67 0.67 -0.34 0.34 0 0 Z M-3 1 C-2.34 1.33 -1.68 1.66 -1 2 C-2.07401108 4.91517292 -2.77810176 6.77810176 -5 9 C-5.33 8.01 -5.66 7.02 -6 6 C-5.67 5.34 -5.34 4.68 -5 4 C-4.34 4 -3.68 4 -3 4 C-3 3.01 -3 2.02 -3 1 Z " fill="#4ABA46" transform="translate(41,54)"/>
<path d="M0 0 C0.33 0.66 0.66 1.32 1 2 C0.34 2 -0.32 2 -1 2 C-0.67 3.32 -0.34 4.64 0 6 C-1.65 6.66 -3.3 7.32 -5 8 C-4.67 6.68 -4.34 5.36 -4 4 C-3.34 4 -2.68 4 -2 4 C-2 3.01 -2 2.02 -2 1 C-1.34 0.67 -0.68 0.34 0 0 Z " fill="#828280" transform="translate(30,45)"/>
<path d="M0 0 C0.99 0 1.98 0 3 0 C3 1.98 3 3.96 3 6 C2.01 6 1.02 6 0 6 C0 4.02 0 2.04 0 0 Z " fill="#1D151A" transform="translate(250,10)"/>
<path d="M0 0 C0.33 0.99 0.66 1.98 1 3 C2.32 2.34 3.64 1.68 5 1 C5 2.65 5 4.3 5 6 C3.68 5.67 2.36 5.34 1 5 C0.67 3.35 0.34 1.7 0 0 Z " fill="#55B551" transform="translate(42,448)"/>
<path d="M0 0 C0 1.98 0 3.96 0 6 C-1.32 5.34 -2.64 4.68 -4 4 C-4 3.01 -4 2.02 -4 1 C-2 0 -2 0 0 0 Z " fill="#4BBD47" transform="translate(40,439)"/>
</svg>
